{
  "accessors": [
    {
      "bufferView": 2,
      "componentType": 5126,
      "count": 938,
      "max": [
        11.023636817932129,
        20.0,
        1.9412672519683838
      ],
      "min": [
        -11.458884239196777,
        -20.0,
        0.0
      ],
      "type": "VEC3"
    },
    {
      "bufferView": 2,
      "byteOffset": 11256,
      "componentType": 5126,
      "count": 938,
      "max": [
        1.0,
        1.0,
        0.9515843987464905
      ],
      "min": [
        -1.0,
        -1.0,
        -0.9515843987464905
      ],
      "type": "VEC3"
    },
    {
      "bufferView": 3,
      "componentType": 5126,
      "count": 938,
      "max": [
        0.9363186359405518,
        0.9968993067741394,
        1.0,
        1.0
      ],
      "min": [
        -0.9363186955451965,
        -0.9968883991241455,
        -1.0,
        1.0
      ],
      "type": "VEC4"
    },
    {
      "bufferView": 1,
      "componentType": 5126,
      "count": 938,
      "max": [
        0.9975457191467285,
        0.998210072517395
      ],
      "min": [
        0.0020000000949949026,
        0.0020000000949949026
      ],
      "type": "VEC2"
    },
    {
      "bufferView": 1,
      "byteOffset": 7504,
      "componentType": 5126,
      "count": 938,
      "max": [
        0.9975457191467285,
        0.998210072517395
      ],
      "min": [
        0.0020000000949949026,
        0.0020000000949949026
      ],
      "type": "VEC2"
    },
    {
      "bufferView": 0,
      "componentType": 5125,
      "count": 3180,
      "type": "SCALAR"
    }
  ],
  "asset": {
    "extras": {
      "author": "DmitriyGDS (https://sketchfab.com/DmitriyGDS)",
      "license": "CC-BY-4.0 (http://creativecommons.org/licenses/by/4.0/)",
      "source": "https://sketchfab.com/3d-models/wooden-fence-43f8b3127fba4800bfc3f36078393e87",
      "title": "Wooden Fence"
    },
    "generator": "Sketchfab-12.68.0",
    "version": "2.0"
  },
  "bufferViews": [
    {
      "buffer": 0,
      "byteLength": 12720,
      "name": "floatBufferViews",
      "target": 34963
    },
    {
      "buffer": 0,
      "byteLength": 15008,
      "byteOffset": 12720,
      "byteStride": 8,
      "name": "floatBufferViews",
      "target": 34962
    },
    {
      "buffer": 0,
      "byteLength": 22512,
      "byteOffset": 27728,
      "byteStride": 12,
      "name": "floatBufferViews",
      "target": 34962
    },
    {
      "buffer": 0,
      "byteLength": 15008,
      "byteOffset": 50240,
      "byteStride": 16,
      "name": "floatBufferViews",
      "target": 34962
    }
  ],
  "buffers": [
    {
      "byteLength": 65248,
      "uri": "scene.bin"
    }
  ],
  "images": [
    {
      "uri": "textures/wooden_fence_baseColor.png"
    },
    {
      "uri": "textures/wooden_fence_normal.png"
    }
  ],
  "materials": [
    {
      "doubleSided": true,
      "name": "wooden_fence",
      "normalTexture": {
        "index": 1
      },
      "pbrMetallicRoughness": {
        "baseColorTexture": {
          "index": 0
        },
        "metallicFactor": 0.0,
        "roughnessFactor": 0.6
      }
    }
  ],
  "meshes": [
    {
      "name": "wooden fence_wooden fence_0",
      "primitives": [
        {
          "attributes": {
            "NORMAL": 1,
            "POSITION": 0,
            "TANGENT": 2,
            "TEXCOORD_0": 3,
            "TEXCOORD_1": 4
          },
          "indices": 5,
          "material": 0,
          "mode": 4
        }
      ]
    }
  ],
  "nodes": [
    {
      "children": [
        1
      ],
      "matrix": [
        1.0,
        0.0,
        0.0,
        0.0,
        0.0,
        2.220446049250313e-16,
        -1.0,
        0.0,
        0.0,
        1.0,
        2.220446049250313e-16,
        0.0,
        0.0,
        0.0,
        0.0,
        1.0
      ],
      "name": "Sketchfab_model"
    },
    {
      "children": [
        2
      ],
      "matrix": [
        1.0,
        0.0,
        0.0,
        0.0,
        0.0,
        0.0,
        1.0,
        0.0,
        0.0,
        -1.0,
        0.0,
        0.0,
        0.0,
        0.0,
        0.0,
        1.0
      ],
      "name": "wooden_fence.FBX"
    },
    {
      "children": [
        3
      ],
      "name": "RootNode"
    },
    {
      "children": [
        4
      ],
      "matrix": [
        1.0,
        0.0,
        0.0,
        0.0,
        0.0,
        2.220446049250313e-16,
        -1.0,
        0.0,
        0.0,
        1.0,
        2.220446049250313e-16,
        0.0,
        0.0,
        0.0,
        0.0,
        1.0
      ],
      "name": "wooden fence"
    },
    {
      "children": [
        5
      ],
      "matrix": [
        5.3447761152565436e-17,
        0.0,
        0.8728681802749634,
        0.0,
        0.0,
        1.0,
        -0.0,
        0.0,
        -0.9999993443489075,
        0.0,
        6.123229981031707e-17,
        0.0,
        0.5999999046325684,
        0.0,
        10.00209903717041,
        1.0
      ],
      "name": "Object_4"
    },
    {
      "mesh": 0,
      "name": "wooden fence_wooden fence_0"
    }
  ],
  "samplers": [
    {
      "magFilter": 9729,
      "minFilter": 9987,
      "wrapS": 10497,
      "wrapT": 10497
    }
  ],
  "scene": 0,
  "scenes": [
    {
      "name": "Sketchfab_Scene",
      "nodes": [
        0
      ]
    }
  ],
  "textures": [
    {
      "sampler": 0,
      "source": 0
    },
    {
      "sampler": 0,
      "source": 1
    }
  ]
}
